<svg id="Group_44" data-name="Group 44" xmlns="http://www.w3.org/2000/svg" xmlns:xlink="http://www.w3.org/1999/xlink" viewBox="0 0 14 14"><defs><style>.cls-1{fill:url(#linear-gradient)}.cls-2{fill:url(#linear-gradient-2)}</style><linearGradient id="linear-gradient" x1="-.173" y1="-.581" x2="1.037" y2="1.054" gradientUnits="objectBoundingBox"><stop offset="0" stop-color="#bd2a36"/><stop offset=".478" stop-color="#9929a6"/><stop offset=".595" stop-color="#77309c"/><stop offset=".779" stop-color="#49398d"/><stop offset=".919" stop-color="#2c3f84"/><stop offset="1" stop-color="#214181"/></linearGradient><linearGradient id="linear-gradient-2" x1="-.091" y1=".004" x2=".812" y2=".908" xlink:href="#linear-gradient"/></defs><path id="Path_70" data-name="Path 70" class="cls-1" d="M6.628 7.04a.538.538 0 0 0-.817.7l2.683 2.86a.5.5 0 0 0 .35.175.416.416 0 0 0 .35-.175l6.767-6.65a.5.5 0 0 0 0-.758.546.546 0 0 0-.758 0L8.9 9.49z" transform="translate(-2.369 -1.265)"/><path id="Path_71" data-name="Path 71" class="cls-2" d="M13.475 6.475A.523.523 0 0 0 12.95 7 5.95 5.95 0 1 1 7 1.05.525.525 0 0 0 7 0a7 7 0 1 0 7 7 .523.523 0 0 0-.525-.525z"/></svg>